<svg width="0" height="0" class="hidden">
  <symbol xmlns="http://www.w3.org/2000/svg" fill-rule="evenodd" clip-rule="evenodd" stroke-linejoin="round" stroke-miterlimit="2" viewBox="0 0 512 512" id="youtube">
    <path d="M501.303 132.765c-5.887-22.03-23.235-39.377-45.265-45.265C416.106 76.8 256 76.8 256 76.8s-160.107 0-200.039 10.7c-22.026 5.888-39.377 23.235-45.264 45.265C0 172.693 0 256.003 0 256.003s0 83.308 10.697 123.232c5.887 22.03 23.238 39.382 45.264 45.269C95.893 435.2 256 435.2 256 435.2s160.106 0 200.038-10.696c22.03-5.887 39.378-23.239 45.265-45.269 10.696-39.924 10.696-123.232 10.696-123.232s0-83.31-10.696-123.238zM204.797 332.804V179.201l133.019 76.802-133.019 76.801z" fill-rule="nonzero"></path>
  </symbol>
  <symbol xmlns="http://www.w3.org/2000/svg" fill-rule="evenodd" clip-rule="evenodd" stroke-linejoin="round" stroke-miterlimit="2" viewBox="0 0 512 512" id="facebook">
    <path d="M449.446 0C483.971 0 512 28.03 512 62.554v386.892C512 483.97 483.97 512 449.446 512H342.978V319.085h66.6l12.672-82.621h-79.272v-53.617c0-22.603 11.073-44.636 46.58-44.636H425.6v-70.34s-32.71-5.582-63.982-5.582c-65.288 0-107.96 39.569-107.96 111.204v62.971h-72.573v82.621h72.573V512H62.554C28.03 512 0 483.97 0 449.446V62.554C0 28.03 28.029 0 62.554 0h386.892z"></path>
  </symbol>
  <symbol xmlns="http://www.w3.org/2000/svg" fill-rule="evenodd" clip-rule="evenodd" stroke-linejoin="round" stroke-miterlimit="2" viewBox="0 0 512 512" id="linkedin">
    <path d="M473.305-1.353c20.88 0 37.885 16.533 37.885 36.926v438.251c0 20.393-17.005 36.954-37.885 36.954H36.846c-20.839 0-37.773-16.561-37.773-36.954V35.573c0-20.393 16.934-36.926 37.773-36.926h436.459zm-37.829 436.389V301.002c0-65.822-14.212-116.427-91.12-116.427-36.955 0-61.739 20.263-71.867 39.476h-1.04V190.64h-72.811v244.396h75.866V314.158c0-31.883 6.031-62.773 45.554-62.773 38.981 0 39.468 36.461 39.468 64.802v118.849h75.95zM150.987 190.64H74.953v244.396h76.034V190.64zM112.99 69.151c-24.395 0-44.066 19.735-44.066 44.047 0 24.318 19.671 44.052 44.066 44.052 24.299 0 44.026-19.734 44.026-44.052 0-24.312-19.727-44.047-44.026-44.047z" fill-rule="nonzero"></path>
  </symbol>
  <symbol xmlns="http://www.w3.org/2000/svg" fill-rule="evenodd" clip-rule="evenodd" stroke-linejoin="round" stroke-miterlimit="2" viewBox="0 0 512 512" id="twitter">
    <path d="M161.014 464.013c193.208 0 298.885-160.071 298.885-298.885 0-4.546 0-9.072-.307-13.578A213.737 213.737 0 00512 97.176a209.705 209.705 0 01-60.334 16.527 105.426 105.426 0 0046.182-58.102 210.548 210.548 0 01-66.703 25.498 105.184 105.184 0 00-76.593-33.112c-57.682 0-105.145 47.464-105.145 105.144 0 8.002.914 15.979 2.722 23.773-84.418-4.231-163.18-44.161-216.494-109.752-27.724 47.726-13.379 109.576 32.522 140.226A104.258 104.258 0 0120.48 194.23v1.331c.014 49.814 35.447 93.111 84.275 102.974a104.898 104.898 0 01-47.431 1.802c13.727 42.685 53.311 72.108 98.14 72.95a210.83 210.83 0 01-130.458 45.056A213.688 213.688 0 010 416.827a297.42 297.42 0 00161.014 47.104" fill-rule="nonzero"></path>
  </symbol>
  <symbol fill="none" xmlns="http://www.w3.org/2000/svg" viewBox="0 0 38 37" id="arrow-next">
    <path d="M19 36.074c9.665 0 17.5-7.835 17.5-17.5s-7.835-17.5-17.5-17.5S1.5 8.91 1.5 18.574s7.835 17.5 17.5 17.5z" stroke="#fff" stroke-opacity=".5" stroke-width="1.5"></path>
    <path d="M19.5 11.074l8 8-8 8m-8-8h16" stroke="#fff" stroke-width="1.5" stroke-linecap="round"></path>
  </symbol>
</svg>