<svg width="0" height="0" class="hidden">
  <symbol fill="none" xmlns="http://www.w3.org/2000/svg" viewBox="0 0 470 360" id="PSW-5">
    <mask id="a" maskUnits="userSpaceOnUse" x="0" y="0" width="470" height="360">
      <path fill="#fff" d="M0 0h470v360H0z"></path>
    </mask>
    <g mask="url(#a)">
      <path d="M90.867 287.43V72.57m247.666 247.311h-215.17m247.668-72.685v40.234m0-214.86v40.674M123.365 40.12h215.17" stroke="#B2B2B2" stroke-width="2" stroke-linecap="round" stroke-linejoin="round"></path>
      <path d="M365.429 235.952v73.858a4.479 4.479 0 01-4.483 4.476H100.953a4.48 4.48 0 01-4.482-4.476V50.191a4.48 4.48 0 014.482-4.476h259.993a4.479 4.479 0 014.483 4.476v73.857" stroke="#1A1A1A" stroke-width="2" stroke-linecap="round" stroke-linejoin="round"></path>
      <path clip-rule="evenodd" d="M410.254 180c0 24.721-20.068 44.762-44.826 44.762-24.757 0-44.826-20.041-44.826-44.762 0-24.722 20.069-44.762 44.826-44.762 24.758 0 44.826 20.04 44.826 44.762z" stroke="#1A1A1A" stroke-width="2" stroke-linecap="round" stroke-linejoin="round"></path>
      <path d="M365.429 165.54v19.704" stroke="#000" stroke-width="2" stroke-linecap="round" stroke-linejoin="round"></path>
      <path fill-rule="evenodd" clip-rule="evenodd" d="M367.31 192.581a1.881 1.881 0 01-3.763 0 1.88 1.88 0 013.763 0z" fill="#000"></path>
      <path d="M166.512 94.673h113.192M166.512 80.684h135.603" stroke="#B2B2B2" stroke-width="2" stroke-linecap="round" stroke-linejoin="round"></path>
      <path clip-rule="evenodd" d="M152.503 87.679c0 7.725-6.271 13.988-14.008 13.988-7.736 0-14.009-6.263-14.009-13.988s6.273-13.988 14.009-13.988c7.737 0 14.008 6.263 14.008 13.988z" stroke="#B2B2B2" stroke-width="2" stroke-linecap="round" stroke-linejoin="round"></path>
      <path d="M166.512 150.625h135.603m-135.603-13.988h113.192" stroke="#B2B2B2" stroke-width="2" stroke-linecap="round" stroke-linejoin="round"></path>
      <path clip-rule="evenodd" d="M152.503 143.631c0 7.725-6.271 13.988-14.008 13.988-7.736 0-14.009-6.263-14.009-13.988s6.273-13.988 14.009-13.988c7.737 0 14.008 6.263 14.008 13.988z" stroke="#B2B2B2" stroke-width="2" stroke-linecap="round" stroke-linejoin="round"></path>
      <path d="M166.512 206.578h135.603m-135.603-13.989h113.192" stroke="#B2B2B2" stroke-width="2" stroke-linecap="round" stroke-linejoin="round"></path>
      <path clip-rule="evenodd" d="M152.503 199.584c0 7.725-6.271 13.988-14.008 13.988-7.736 0-14.009-6.263-14.009-13.988s6.273-13.988 14.009-13.988c7.737 0 14.008 6.263 14.008 13.988z" stroke="#B2B2B2" stroke-width="2" stroke-linecap="round" stroke-linejoin="round"></path>
      <path d="M138.496 267.562v19.868m11.205-31.057v31.057m11.207-42.247v42.247m11.205-36.652v36.652m11.207-25.463v25.463m11.205-36.652v36.652m11.205-25.463v25.463m11.207-14.272v14.272m76.215-36.652h30.461m-64.652 0h20.742m34.738 15.529h9.171m-64.651 0h42.033m-17.056 15.529h39.674m-64.651 0h11.527" stroke="#B2B2B2" stroke-width="2" stroke-linecap="round" stroke-linejoin="round"></path>
      <path clip-rule="evenodd" d="M280.574 285.193h-6.724a3.36 3.36 0 01-3.362-3.357 3.36 3.36 0 013.362-3.357h6.724a3.359 3.359 0 013.362 3.357 3.36 3.36 0 01-3.362 3.357zm30.506-15.529h-6.724a3.36 3.36 0 01-3.362-3.357 3.36 3.36 0 013.362-3.357h6.724a3.36 3.36 0 013.362 3.357 3.36 3.36 0 01-3.362 3.357zm-21.291-15.529h-6.724a3.36 3.36 0 01-3.362-3.357 3.36 3.36 0 013.362-3.357h6.724a3.36 3.36 0 013.362 3.357 3.36 3.36 0 01-3.362 3.357z" stroke="#B2B2B2" stroke-width="2" stroke-linecap="round" stroke-linejoin="round"></path>
    </g>
  </symbol>
  <symbol fill="none" xmlns="http://www.w3.org/2000/svg" viewBox="0 0 470 360" id="PSW-6">
    <mask id="a" maskUnits="userSpaceOnUse" x="0" y="0" width="470" height="360">
      <path fill="#fff" d="M0 0h470v360H0z"></path>
    </mask>
    <g mask="url(#a)" stroke-width="2" stroke-linecap="round" stroke-linejoin="round">
      <path d="M146.331 65.508c4.081 0 8.066.413 11.914 1.2a58.652 58.652 0 0111.096 3.439 58.97 58.97 0 0110.041 5.44 59.309 59.309 0 018.748 7.207 59.314 59.314 0 017.218 8.735 58.531 58.531 0 018.894 21.103 59.135 59.135 0 011.202 11.893c0 4.074-.414 8.052-1.202 11.894a58.467 58.467 0 01-3.443 11.077 58.852 58.852 0 01-5.451 10.026 59.34 59.34 0 01-7.218 8.733 59.296 59.296 0 01-8.748 7.207 59.126 59.126 0 01-10.041 5.442 58.736 58.736 0 01-11.096 3.438 59.489 59.489 0 01-11.914 1.199c-4.08 0-8.064-.413-11.912-1.199a58.745 58.745 0 01-21.138-8.88 59.4 59.4 0 01-15.967-15.94 58.766 58.766 0 01-8.894-21.103 59.195 59.195 0 01-1.201-11.894c0-4.075.413-8.051 1.2-11.893a58.53 58.53 0 013.446-11.079 58.77 58.77 0 015.449-10.024 59.428 59.428 0 0115.967-15.942M89.106 85.774l24.175-10.187" stroke="#B2B2B2"></path>
      <path d="M146.331 115.672V83.213m28.216 63.971l-21.309-17.114" stroke="#231F20"></path>
      <path clip-rule="evenodd" d="M155.199 124.525c0-4.889-3.969-8.853-8.867-8.853-4.897 0-8.867 3.964-8.867 8.853 0 4.89 3.97 8.852 8.867 8.852 4.898 0 8.867-3.962 8.867-8.852z" stroke="#B2B2B2"></path>
      <path d="M232.377 137.283h108.578M232.377 88.162h108.578m-108.578 72.726h130.075m-130.075-47.576h130.075m.987 90.342c29.001-14.541 48.898-44.522 48.898-79.129 0-48.89-39.7-88.525-88.669-88.525H146.331c-48.969 0-88.669 39.636-88.669 88.525s39.7 88.525 88.669 88.525v42.126l42.195-42.126h34.107" stroke="#231F20"></path>
      <path clip-rule="evenodd" d="M335.476 323.855l-24.566-24.771s-23.138.164-28.818.085c-15.144-.213-32.174 2.187-48.327-18.428-21.782-27.798-9.036-82.259 41.67-82.259h45.268c10.227 0 37.122 4.349 47.54 34.227 8.567 24.569-.715 55.218-32.767 64.294v26.852z" stroke="#B2B2B2"></path>
      <path clip-rule="evenodd" d="M337.5 250.56a6.408 6.408 0 01-6.413 6.404c-3.543 0-6.415-2.867-6.415-6.404s2.872-6.404 6.415-6.404a6.408 6.408 0 016.413 6.404zm-33.673 0c0 3.537-2.872 6.404-6.414 6.404s-6.415-2.867-6.415-6.404 2.873-6.404 6.415-6.404 6.414 2.867 6.414 6.404zm-33.672 0c0 3.537-2.873 6.404-6.415 6.404s-6.414-2.867-6.414-6.404 2.872-6.404 6.414-6.404 6.415 2.867 6.415 6.404z" stroke="#000"></path>
    </g>
  </symbol>
  <symbol fill="none" xmlns="http://www.w3.org/2000/svg" viewBox="0 0 318 317" id="PSW-7">
    <g stroke-width="2" stroke-linecap="round" stroke-linejoin="round">
      <path d="M143.42 9C67.9 16.79 9 80.62 9 158.2c0 82.84 67.16 150 150 150 77.59 0 141.41-58.9 149.2-134.42" stroke="#B2B2B2"></path>
      <path d="M174.58 9c70.41 7.26 126.36 63.22 133.62 133.62" stroke="#231F20"></path>
      <path d="M46.87 201.02C41.78 187.72 39 173.29 39 158.2c0-30.13 11.099-57.66 29.44-78.73m-8.63 146.28c21.602 31.66 57.972 52.45 99.191 52.45 61 0 111.361-45.51 119-104.42M89.049 60.68a119.37 119.37 0 0154.37-21.48" stroke="#B2B2B2"></path>
      <path d="M269.061 110.299a119.12 119.12 0 018.94 32.32M174.58 39.2c29.56 3.83 55.74 18.42 74.49 39.7m-74.49-9.35c37.229 6.49 66.59 35.85 73.07 73.069" stroke="#231F20"></path>
      <path d="M211.789 231.08c18.55-13.439 31.76-33.8 35.86-57.3M143.42 69.55C101.14 76.92 69 113.81 69 158.198c0 49.701 40.3 90 90 90 9.731 0 19.11-1.549 27.89-4.42" stroke="#B2B2B2"></path>
      <path d="M174.58 100.25c20.62 5.521 36.85 21.75 42.38 42.37" stroke="#231F20"></path>
      <path d="M143.42 100.25C117.84 107.101 99 130.45 99 158.2c0 33.14 26.87 60 60 60 27.75 0 51.1-18.84 57.96-44.42" stroke="#B2B2B2"></path>
      <path clip-rule="evenodd" d="M174.002 158.199c0-8.284-6.716-15-15-15-8.284 0-15 6.716-15 15 0 8.284 6.716 15 15 15 8.284 0 15-6.716 15-15z" stroke="#231F20"></path>
      <path clip-rule="evenodd" d="M316.413 158.199c0-86.706-70.477-157-157.409-157-86.933 0-157.41 70.294-157.41 157s70.477 157 157.41 157c86.932 0 157.409-70.294 157.409-157z" stroke="#231F20"></path>
      <path d="M174.002 158.199h134.197" stroke="#231F20"></path>
      <path clip-rule="evenodd" d="M209.734 238.2c0 5.522-4.477 10-10 10-5.522 0-10-4.478-10-10s4.478-10 10-10c5.523 0 10 4.478 10 10z" stroke="#B2B2B2"></path>
      <path clip-rule="evenodd" d="M204.734 238.2a5 5 0 11-10 0 5 5 0 1110 0zM72.938 77.856c-4.783-2.762-6.422-8.877-3.661-13.66 2.762-4.783 8.878-6.422 13.66-3.66 4.783 2.761 6.422 8.877 3.66 13.66-2.761 4.783-8.877 6.422-13.66 3.66z" stroke="#B2B2B2"></path>
      <path clip-rule="evenodd" d="M75.436 73.526a4.999 4.999 0 01-1.83-6.83 5 5 0 111.83 6.83zM47.47 222.503c-4.782-2.762-6.422-8.878-3.66-13.66 2.761-4.783 8.877-6.422 13.66-3.66 4.784 2.76 6.422 8.877 3.66 13.66-2.762 4.782-8.877 6.421-13.66 3.66z" stroke="#B2B2B2"></path>
      <path clip-rule="evenodd" d="M49.97 218.173a4.999 4.999 0 01-1.83-6.83 4.999 4.999 0 016.83-1.83 4.999 4.999 0 011.83 6.83 4.999 4.999 0 01-6.83 1.83z" stroke="#B2B2B2"></path>
      <path clip-rule="evenodd" d="M266.626 80.67h-14.024c-.358 0-.688.191-.867.5l-7.011 12.146a.998.998 0 000 1l7.011 12.144a1 1 0 00.867.5h14.024c.356 0 .687-.19.865-.5l7.013-12.144c.178-.31.178-.69 0-1l-7.013-12.146a1 1 0 00-.865-.5z" stroke="#1A1A1A"></path>
    </g>
  </symbol>
  <symbol fill="none" xmlns="http://www.w3.org/2000/svg" viewBox="0 0 470 360" id="PSW-8">
    <mask id="a" maskUnits="userSpaceOnUse" x="0" y="0" width="470" height="360">
      <path fill="#fff" d="M0 0h470v360H0z"></path>
    </mask>
    <g mask="url(#a)" stroke-width="2" stroke-linecap="round" stroke-linejoin="round">
      <path d="M276.954 54.145h50.34c1.153 0 2.097.944 2.097 2.097v247.504a2.097 2.097 0 01-2.097 2.098H142.715a2.091 2.091 0 01-2.098-2.098V56.243c0-1.154.934-2.098 2.098-2.098h50.339" stroke="#000"></path>
      <path d="M109.15 305.848V48.906c0-14.48 11.739-26.218 26.219-26.218H235M360.849 54.15v256.942c0 14.481-11.737 26.219-26.218 26.219H235" stroke="#B2B2B2"></path>
      <path d="M276.955 64.632h41.95v199.262l-15.732 15.731-15.731 15.731H151.105V64.632h41.95" stroke="#B2B2B2"></path>
      <path clip-rule="evenodd" d="M262.267 75.125h-54.535a4.194 4.194 0 01-4.195-4.195V47.858a4.195 4.195 0 014.195-4.195h54.535a4.194 4.194 0 014.195 4.195V70.93a4.194 4.194 0 01-4.195 4.195z" stroke="#000"></path>
      <path d="M287.436 295.361v-31.462h31.462" stroke="#B2B2B2"></path>
      <path clip-rule="evenodd" d="M276.948 143.293c0-23.169-18.781-41.95-41.949-41.95s-41.95 18.781-41.95 41.95c0 23.167 18.782 41.949 41.95 41.949 23.168 0 41.949-18.782 41.949-41.949z" stroke="#231F20"></path>
      <path d="M254.639 134.871l-23.567 23.567-15.711-15.712" stroke="#231F20"></path>
      <path d="M193.049 206.216h83.899m-83.899 20.973h83.899m-83.899 20.974h83.899M207.732 6.957L235 22.687m0 314.624l27.267 15.731" stroke="#B2B2B2"></path>
    </g>
  </symbol>
  <symbol fill="none" xmlns="http://www.w3.org/2000/svg" viewBox="0 0 470 360" id="PSW-9">
    <mask id="a" maskUnits="userSpaceOnUse" x="0" y="0" width="470" height="360">
      <path fill="#fff" d="M0 0h470v360H0z"></path>
    </mask>
    <g mask="url(#a)" stroke-width="2" stroke-linecap="round" stroke-linejoin="round">
      <path d="M163.891 312.101C185.051 323.521 209.271 330 235 330c25.741 0 49.961-6.479 71.12-17.899M163.891 47.9C185.051 36.48 209.271 30 235 30c25.741 0 49.961 6.48 71.12 17.9M102.9 251.12C91.48 229.95 85 205.73 85 180c0-25.73 6.48-49.95 17.9-71.12m264.2.01c11.42 21.16 17.899 45.38 17.899 71.11 0 25.73-6.479 49.95-17.899 71.11" stroke="#231F20"></path>
      <path d="M258.131 296.74a117.705 117.705 0 0039.68-15.66M118.26 156.87c2.81-14.31 8.189-27.7 15.66-39.67m38.279-38.29a117.904 117.904 0 0139.67-15.65M118.26 203.13a117.678 117.678 0 0015.66 39.67m38.279 38.29a117.904 117.904 0 0039.67 15.65m46.262-233.48a117.684 117.684 0 0139.68 15.66M336.08 242.8a117.657 117.657 0 0015.66-39.67m-15.66-85.93a117.665 117.665 0 0115.66 39.67" stroke="#B2B2B2"></path>
      <path d="M238.129 195.292h5.12c.36 0 .693-.192.874-.504l8.245-14.282a1.005 1.005 0 000-1.009l-8.245-14.282a1.01 1.01 0 00-.874-.504h-16.491c-.36 0-.693.192-.873.504l-8.246 14.282a1.01 1.01 0 000 1.009l8.246 14.282c.18.312.513.504.873.504h11.371m0 46.789h5.12c.36 0 .693-.192.874-.505l8.245-14.281a1.005 1.005 0 000-1.009l-8.245-14.282a1.009 1.009 0 00-.874-.504h-16.491c-.36 0-.693.191-.873.504l-8.246 14.282a1.01 1.01 0 000 1.009l8.246 14.281c.18.313.513.505.873.505h11.371m0-93.578h5.12c.36 0 .693-.192.874-.504l8.245-14.282a1.005 1.005 0 000-1.009l-8.245-14.282a1.01 1.01 0 00-.874-.504h-16.491c-.36 0-.693.192-.873.504l-8.246 14.282a1.01 1.01 0 000 1.009l8.246 14.282c.18.312.513.504.873.504h11.371m-52.5 46.789h5.12c.36 0 .693-.192.874-.504l8.245-14.282a1.005 1.005 0 000-1.009l-8.245-14.282a1.01 1.01 0 00-.874-.504h-16.491c-.36 0-.693.192-.873.504l-8.246 14.282a1.01 1.01 0 000 1.009l8.246 14.282c.18.312.513.504.873.504h11.371m105 0h5.12c.36 0 .693-.192.874-.504l8.245-14.282a1.005 1.005 0 000-1.009l-8.245-14.282a1.01 1.01 0 00-.874-.504h-16.491c-.36 0-.693.192-.873.504l-8.246 14.282a1.01 1.01 0 000 1.009l8.246 14.282c.18.312.513.504.873.504h11.371" stroke="#1A1A1A"></path>
      <path d="M187.338 157.965a52.732 52.732 0 0122.6-24.103m50.134 92.286c9.877-5.388 17.848-13.853 22.59-24.104m-22.59-68.182c9.877 5.377 17.848 13.842 22.59 24.103m-95.324 44.08c4.752 10.251 12.723 18.716 22.6 24.104" stroke="#B2B2B2"></path>
      <path d="M381.589 265.35l-83.651-22.414 22.413 83.651M88.418 94.653l83.651 22.415-22.414-83.652m0 293.171l22.414-83.651-83.651 22.414M320.351 33.416l-22.413 83.652 83.651-22.415" stroke="#1A1A1A"></path>
      <path d="M255.004 311.322l-20-34.641-20 34.641m0-262.642l20 34.642 20-34.641m-151.32 151.321l34.642-20-34.642-20m262.641-.001l-34.641 20 34.641 20" stroke="#B2B2B2"></path>
    </g>
  </symbol>
  <symbol fill="none" xmlns="http://www.w3.org/2000/svg" viewBox="0 0 352 264" id="PSW-1">
    <path d="M327.085 189.868c-11.75 14.733-25.678 27.753-41.456 38.652-16.154 11.159-33.709 19.687-52.15 25.426-18.443 5.739-37.773 8.688-57.478 8.688-19.709 0-39.041-2.949-57.485-8.688-18.445-5.739-36-14.267-52.155-25.426-15.778-10.899-29.705-23.92-41.455-38.654m0-116.097c11.75-14.735 25.677-27.756 41.455-38.655 16.154-11.158 33.71-19.686 52.154-25.426C136.96 3.95 156.292 1 176.001 1c19.705 0 39.035 2.95 57.477 8.688 18.442 5.74 35.996 14.268 52.151 25.426 15.778 10.9 29.706 23.92 41.456 38.652" stroke="#B2B2B2" stroke-width="2" stroke-linecap="round" stroke-linejoin="round"></path>
    <path clip-rule="evenodd" d="M349.695 125.001a18.455 18.455 0 010 13.633c-27.489 69.002-94.895 117.771-173.694 117.771-78.812 0-146.219-48.771-173.697-117.774a18.452 18.452 0 010-13.628C29.782 56 97.19 7.23 176.001 7.23c78.799 0 146.205 48.769 173.694 117.771z" stroke="#1A1A1A" stroke-width="2" stroke-linecap="round" stroke-linejoin="round"></path>
    <path clip-rule="evenodd" d="M197.801 131.817c0-12.042-9.762-21.803-21.803-21.803-12.042 0-21.803 9.761-21.803 21.803 0 12.041 9.761 21.803 21.803 21.803 12.041 0 21.803-9.762 21.803-21.803z" stroke="#1A1A1A" stroke-width="2" stroke-linecap="round" stroke-linejoin="round"></path>
    <path clip-rule="evenodd" d="M213.376 131.817c0-41.285-16.733-74.752-37.376-74.752-20.643 0-37.377 33.467-37.377 74.752s16.734 74.752 37.377 74.752 37.376-33.467 37.376-74.752z" stroke="#B2B2B2" stroke-width="2" stroke-linecap="round" stroke-linejoin="round"></path>
    <path clip-rule="evenodd" d="M176 169.193c41.285 0 74.753-16.734 74.753-37.376 0-20.643-33.468-37.376-74.753-37.376s-74.754 16.733-74.754 37.376c0 20.642 33.469 37.376 74.754 37.376z" stroke="#B2B2B2" stroke-width="2" stroke-linecap="round" stroke-linejoin="round"></path>
    <path clip-rule="evenodd" d="M250.753 131.817c0-41.285-33.468-74.752-74.753-74.752s-74.754 33.467-74.754 74.752 33.469 74.752 74.754 74.752c41.285 0 74.753-33.467 74.753-74.752z" stroke="#1A1A1A" stroke-width="2" stroke-linecap="round" stroke-linejoin="round"></path>
    <path d="M189.879 31.817a101.093 101.093 0 0136.588 12.59 101.095 101.095 0 0129.196 25.39c8.06 10.343 14.224 22.436 17.83 35.896M162.121 231.817a101.088 101.088 0 01-36.587-12.59 101.103 101.103 0 01-29.197-25.39c-8.06-10.343-14.223-22.436-17.83-35.896M239.918 38.446l-50.039-6.629m-77.797 193.371l50.039 6.629" stroke="#231F20" stroke-width="2" stroke-linecap="round" stroke-linejoin="round"></path>
    <path d="M258.922 187.728a99.777 99.777 0 009.22-16.987 99.242 99.242 0 005.827-18.771A100.457 100.457 0 00276 131.817M93.079 75.906a99.708 99.708 0 00-9.22 16.987 99.242 99.242 0 00-5.827 18.771A100.45 100.45 0 0076 131.817" stroke="#B2B2B2" stroke-width="2" stroke-linecap="round" stroke-linejoin="round"></path>
  </symbol>
  <symbol fill="none" xmlns="http://www.w3.org/2000/svg" viewBox="0 0 391 332" id="PSW-2">
    <path d="M104.305 256.238a131.896 131.896 0 0019.417 16.007 131.056 131.056 0 0022.288 12.085 130.62 130.62 0 0012.055 4.407M81.71 101.072a130.13 130.13 0 00-13.17 36.063 130.902 130.902 0 00-1.988 13.014 132.604 132.604 0 00-.677 13.402c0 4.526.23 8.996.677 13.403a130.13 130.13 0 0015.159 49.077 130.736 130.736 0 006.572 10.808M317.978 112.53a130.597 130.597 0 00-12.097-22.265 131.742 131.742 0 00-25.339-27.86c-3.24-2.67-6.61-5.19-10.1-7.545a131.099 131.099 0 00-22.288-12.085 130.259 130.259 0 00-24.629-7.639 131.26 131.26 0 00-13.027-1.986 133 133 0 00-13.416-.676c-4.528 0-9.005.229-13.415.676a130.699 130.699 0 00-25.601 5.216 130.816 130.816 0 00-34.343 16.494M327.61 176.954c.448-4.406.677-8.877.677-13.402 0-4.524-.229-8.996-.677-13.403M259.623 278.81a131.638 131.638 0 0030.236-22.571 131.739 131.739 0 0022.594-30.208 130.44 130.44 0 005.525-11.458" stroke="#B2B2B2" stroke-width="2" stroke-linecap="round" stroke-linejoin="round"></path>
    <path clip-rule="evenodd" d="M292.504 163.552c0-52.649-42.722-95.33-95.422-95.33-52.701 0-95.424 42.681-95.424 95.33 0 52.648 42.723 95.33 95.424 95.33 52.7 0 95.422-42.682 95.422-95.33z" stroke="#231F20" stroke-width="2" stroke-linecap="round" stroke-linejoin="round"></path>
    <path clip-rule="evenodd" d="M286.246 163.552c0-49.197-39.92-89.078-89.165-89.078-49.244 0-89.165 39.881-89.165 89.078 0 49.196 39.921 89.077 89.165 89.077 49.245 0 89.165-39.881 89.165-89.077z" stroke="#B2B2B2" stroke-width="2" stroke-linecap="round" stroke-linejoin="round"></path>
    <path d="M136.882 39.74a2.385 2.385 0 01-2.386-2.384V3.99a2.385 2.385 0 012.386-2.383h53.042a2.384 2.384 0 012.386 2.383v21.617" stroke="#B2B2B2" stroke-width="2" stroke-linecap="round" stroke-linejoin="round"></path>
    <path clip-rule="evenodd" d="M245.122 191.868h-96.081v-58.924a4.43 4.43 0 014.432-4.428h87.216a4.43 4.43 0 014.433 4.428v58.924zm9.608 0H139.434v2.291a4.429 4.429 0 004.432 4.428h106.431a4.43 4.43 0 004.433-4.428v-2.291z" stroke="#231F20" stroke-width="2" stroke-linecap="round" stroke-linejoin="round"></path>
    <path d="M197.081 149.247v19.493" stroke="#000" stroke-width="2" stroke-linecap="round" stroke-linejoin="round"></path>
    <path fill-rule="evenodd" clip-rule="evenodd" d="M198.942 175.998a1.861 1.861 0 01-3.721 0 1.86 1.86 0 013.721 0z" fill="#000"></path>
    <mask id="a" maskUnits="userSpaceOnUse" x="0" y="0" width="391" height="332">
      <path fill-rule="evenodd" clip-rule="evenodd" d="M.975 331.487h389.248V.5H.975v330.987z" fill="#fff"></path>
    </mask>
    <g mask="url(#a)" stroke-width="2" stroke-linecap="round" stroke-linejoin="round">
      <path clip-rule="evenodd" d="M192.312 282.714h9.542v-23.833h-9.542v23.833z" stroke="#231F20"></path>
      <path d="M183.961 330.38v-47.665h26.242v29.791" stroke="#231F20"></path>
      <path clip-rule="evenodd" d="M386.898 185.424h-14.653a2.216 2.216 0 01-2.216-2.215v-28.937c0-1.223.993-2.214 2.216-2.214h14.653c1.223 0 2.216.991 2.216 2.214v28.937a2.216 2.216 0 01-2.216 2.215zM49.937 253.206c0-7.898-6.408-14.3-14.313-14.3s-14.314 6.402-14.314 14.3c0 7.897 6.409 14.299 14.314 14.299s14.313-6.402 14.313-14.299zM333.76 30.156c0-7.897-6.408-14.3-14.313-14.3-7.906 0-14.314 6.403-14.314 14.3 0 7.898 6.408 14.3 14.314 14.3 7.905 0 14.313-6.402 14.313-14.3zM20.276 136.165l14.054-24.317c.852-1.476-.214-3.321-1.92-3.321H4.303c-1.707 0-2.773 1.845-1.92 3.321l14.053 24.317c.854 1.476 2.985 1.476 3.839 0z" stroke="#B2B2B2"></path>
      <path d="M282.318 273.741l4.235 7.328a2.388 2.388 0 002.067 1.191h15.137c.852 0 1.64-.454 2.066-1.191l7.569-13.096a2.381 2.381 0 000-2.383l-7.569-13.098a2.387 2.387 0 00-2.066-1.192M31.333 277.85v28.138m8.582-28.138v13.081M344.443 32.473h7.328m6.754 0h25.277M350.406 23.9h15.509" stroke="#B2B2B2"></path>
    </g>
  </symbol>
  <symbol fill="none" xmlns="http://www.w3.org/2000/svg" viewBox="0 0 470 360" id="PSW-3">
    <mask id="a" maskUnits="userSpaceOnUse" x="0" y="0" width="470" height="360">
      <path fill="#fff" d="M0 0h470v360H0z"></path>
    </mask>
    <g mask="url(#a)" stroke-width="2" stroke-linecap="round" stroke-linejoin="round">
      <path clip-rule="evenodd" d="M111.25 44h-22.5L77.5 63.485l11.25 19.486h22.5l11.25-19.486L111.25 44zm45 58.457h-22.5l-11.25 19.485 11.25 19.486h22.5l11.25-19.486-11.25-19.485zm90 0h-22.5l-11.25 19.485 11.25 19.486h22.5l11.25-19.486-11.25-19.485zm90 0h-22.5l-11.25 19.485 11.25 19.486h22.5l11.25-19.486-11.25-19.485zM201.25 44h-22.5L167.5 63.485l11.25 19.486h22.5l11.25-19.486L201.25 44zm90 0h-22.5L257.5 63.485l11.25 19.486h22.5l11.25-19.486L291.25 44zm90 0h-22.5L347.5 63.485l11.25 19.486h22.5l11.25-19.486L381.25 44zm-270 116.913h-22.5L77.5 180.399l11.25 19.485h22.5l11.25-19.485-11.25-19.486zm45 58.457h-22.5l-11.25 19.486 11.25 19.486h22.5l11.25-19.486-11.25-19.486zm90 0h-22.5l-11.25 19.486 11.25 19.486h22.5l11.25-19.486-11.25-19.486zm90 0h-22.5l-11.25 19.486 11.25 19.486h22.5l11.25-19.486-11.25-19.486zm-45-58.457h-22.5l-11.25 19.486 11.25 19.485h22.5l11.25-19.485-11.25-19.486zm90 0h-22.5l-11.25 19.486 11.25 19.485h22.5l11.25-19.485-11.25-19.486zm-270 116.914h-22.5L77.5 297.312l11.25 19.486h22.5l11.25-19.486-11.25-19.485zm90 0h-22.5l-11.25 19.485 11.25 19.486h22.5l11.25-19.486-11.25-19.485zm90 0h-22.5l-11.25 19.485 11.25 19.486h22.5l11.25-19.486-11.25-19.485zm90 0h-22.5l-11.25 19.485 11.25 19.486h22.5l11.25-19.486-11.25-19.485zm-191.251-82.693l13.719-23.76h-27.437l13.718 23.76z" stroke="#1A1A1A"></path>
      <path d="M151.523 172.913a39.064 39.064 0 012.152-7.263 38.906 38.906 0 013.587-6.817 39.502 39.502 0 015.023-6.149 39.384 39.384 0 016.148-5.022 38.955 38.955 0 0114.081-5.74m0 76.955a38.982 38.982 0 01-14.081-5.74 39.391 39.391 0 01-6.148-5.023 39.391 39.391 0 01-5.023-6.148 38.978 38.978 0 01-5.739-14.08m76.954-.001a38.941 38.941 0 01-5.739 14.08 39.502 39.502 0 01-5.023 6.149 39.391 39.391 0 01-6.149 5.022 38.817 38.817 0 01-6.818 3.588 39.085 39.085 0 01-7.262 2.152m0-76.954a38.911 38.911 0 0114.08 5.74 39.391 39.391 0 016.149 5.022 39.445 39.445 0 015.023 6.149 38.956 38.956 0 015.739 14.08m-14.959 7.486h32.209m-111.454 0h32.209M190 124.673v32.209m0 47.034v32.21" stroke="#B2B2B2"></path>
    </g>
  </symbol>
  <symbol fill="none" xmlns="http://www.w3.org/2000/svg" viewBox="0 0 470 360" id="PSW-4">
    <mask id="a" maskUnits="userSpaceOnUse" x="0" y="0" width="470" height="360">
      <path fill="#fff" d="M0 0h470v360H0z"></path>
    </mask>
    <g mask="url(#a)" stroke-width="2" stroke-linecap="round" stroke-linejoin="round">
      <path d="M148.219 92.876l50.485 50.491M99.72 44.372l15.262 15.265" stroke="#B2B2B2"></path>
      <path clip-rule="evenodd" d="M245.057 172.538c0 5.729-4.63 10.372-10.358 10.372-5.729 0-10.371-4.643-10.371-10.372s4.642-10.359 10.371-10.359c5.728 0 10.358 4.63 10.358 10.359z" stroke="#231F20"></path>
      <path clip-rule="evenodd" d="M234.699 145.426c-18.747 0-33.937 15.192-33.937 33.941 0 10.712 4.955 20.27 12.705 26.473 1.318-7.384 6.381-13.439 13.154-16.168l8.092 9.653 8.063-9.68c6.774 2.742 11.837 8.811 13.168 16.183 7.738-6.205 12.692-15.749 12.692-26.461 0-18.749-15.191-33.941-33.937-33.941z" stroke="#231F20"></path>
      <path clip-rule="evenodd" d="M274.293 179.367c0 21.87-17.727 39.599-39.594 39.599s-39.594-17.729-39.594-39.599c0-21.87 17.727-39.598 39.594-39.598s39.594 17.728 39.594 39.598z" stroke="#B2B2B2"></path>
      <path d="M234.698 70.04v58.415m-121.873 97.036v24.852m82.28-70.976h-77.754a4.526 4.526 0 00-4.525 4.526v7.304m232.433-11.83h-70.966M345.26 68.792l-22.028 22.03m-23.995 24l-28.542 28.545m98.982-98.995l-15.263 15.265m2.157 168.081v-43.825a4.525 4.525 0 00-4.525-4.526h-77.753" stroke="#B2B2B2"></path>
      <path clip-rule="evenodd" d="M142.238 318.226H83.414a4.525 4.525 0 01-4.525-4.526v-58.832a4.525 4.525 0 014.525-4.525h58.824a4.525 4.525 0 014.525 4.525V313.7c0 2.5-2.026 4.526-4.525 4.526z" stroke="#B2B2B2"></path>
      <path d="M344.586 244.582l-7.773-13.469c-.871-1.505.215-3.394 1.957-3.394h35.6c1.742 0 2.828 1.889 1.958 3.394l-7.761 13.469" stroke="#1A1A1A"></path>
      <path clip-rule="evenodd" d="M328.291 102.91c0-9.373-7.598-16.971-16.969-16.971-9.371 0-16.968 7.598-16.968 16.971 0 9.373 7.597 16.97 16.968 16.97 9.371 0 16.969-7.597 16.969-16.97zM144.903 63.197h-18.492a1.13 1.13 0 00-.979.566l-9.246 16.014a1.138 1.138 0 000 1.132l9.246 16.016c.202.35.576.565.979.565h18.492c.403 0 .777-.216.978-.565l9.246-16.016c.202-.35.202-.781 0-1.132l-9.246-16.014a1.127 1.127 0 00-.978-.566zm-22.831 128h-18.491c-.404 0-.777.216-.98.566l-9.244 16.016a1.13 1.13 0 000 1.131l9.244 16.016c.203.35.576.566.98.566h18.491c.404 0 .778-.216.98-.566l9.245-16.016c.202-.35.202-.782 0-1.131l-9.245-16.016a1.132 1.132 0 00-.98-.566z" stroke="#1A1A1A"></path>
      <path d="M127.602 276.683l-17.053 17.056-11.37-11.372" stroke="#231F20"></path>
      <path clip-rule="evenodd" d="M385.982 318.226h-58.824a4.525 4.525 0 01-4.525-4.526v-58.832a4.525 4.525 0 014.525-4.525h58.824a4.524 4.524 0 014.525 4.525V313.7c0 2.5-2.024 4.526-4.525 4.526z" stroke="#B2B2B2"></path>
      <path d="M234.693 34.676V21.131m.005 231.216v-33.381m-.005 78.636v31.937" stroke="#B2B2B2"></path>
      <path d="M346.389 274.102l20.362 20.365m0-20.365l-20.362 20.365" stroke="#231F20"></path>
      <path clip-rule="evenodd" d="M236.657 68.909l17.802-30.838c.871-1.51-.217-3.395-1.959-3.395h-35.605c-1.742 0-2.83 1.885-1.959 3.395l17.802 30.838c.871 1.508 3.048 1.508 3.919 0zm15.003 200.409c0-9.372-7.597-16.971-16.969-16.971-9.371 0-16.968 7.599-16.968 16.971s7.597 16.971 16.968 16.971c9.372 0 16.969-7.599 16.969-16.971z" stroke="#1A1A1A"></path>
    </g>
  </symbol>
    <symbol fill="none" xmlns="http://www.w3.org/2000/svg" viewBox="0 0 77 77" id="security-img-3">
    <g opacity=".401" stroke-width="2" stroke-linecap="round" stroke-linejoin="round">
      <path d="M8.919 45.945v14.789M33.353 62.9L14.166 43.78M60.86 68.128H46.02m-2.174-53.926l19.187 19.12M16.34 8.973h14.84m37.1 36.972v14.789" stroke="#B2B2B2"></path>
      <path d="M16.34 8.973c0 4.084-3.322 7.395-7.42 7.395S1.5 13.057 1.5 8.973C1.5 4.89 4.822 1.58 8.92 1.58s7.42 3.31 7.42 7.394zm29.68 0c0 4.084-3.322 7.395-7.42 7.395s-7.42-3.311-7.42-7.395c0-4.083 3.322-7.394 7.42-7.394s7.42 3.31 7.42 7.394zm29.68 0c0 4.084-3.322 7.395-7.42 7.395s-7.42-3.311-7.42-7.395c0-4.083 3.322-7.394 7.42-7.394s7.42 3.31 7.42 7.394zM16.34 38.55c0 4.084-3.322 7.395-7.42 7.395s-7.42-3.31-7.42-7.394 3.322-7.395 7.42-7.395 7.42 3.311 7.42 7.395zm29.68 0c0 4.084-3.322 7.395-7.42 7.395s-7.42-3.31-7.42-7.394 3.322-7.395 7.42-7.395 7.42 3.311 7.42 7.395zm29.68 0c0 4.084-3.322 7.395-7.42 7.395s-7.42-3.31-7.42-7.394 3.322-7.395 7.42-7.395 7.42 3.311 7.42 7.395zM16.34 68.128c0 4.084-3.322 7.394-7.42 7.394s-7.42-3.31-7.42-7.394 3.322-7.394 7.42-7.394 7.42 3.31 7.42 7.394zm29.68 0c0 4.084-3.322 7.394-7.42 7.394s-7.42-3.31-7.42-7.394 3.322-7.394 7.42-7.394 7.42 3.31 7.42 7.394zm29.68 0c0 4.084-3.322 7.394-7.42 7.394s-7.42-3.31-7.42-7.394 3.322-7.394 7.42-7.394 7.42 3.31 7.42 7.394z" clip-rule="evenodd" stroke="#1A1A1A"></path>
    </g>
  </symbol>
  <symbol fill="none" xmlns="http://www.w3.org/2000/svg" viewBox="0 0 93 105" id="security-img-4">
    <g opacity=".4" stroke-width="2" stroke-linecap="round" stroke-linejoin="round">
      <path clip-rule="evenodd" d="M46.807 33.211c-11.05 0-20 8.952-20 20 0 6.312 2.92 11.944 7.487 15.6a12.696 12.696 0 017.752-9.528l4.769 5.688 4.752-5.704a12.759 12.759 0 017.76 9.536 19.932 19.932 0 007.48-15.592c0-11.048-8.952-20-20-20z" stroke="#1A1A1A"></path>
      <path clip-rule="evenodd" d="M53.303 48.691a6.5 6.5 0 10-13 0 6.5 6.5 0 0013 0z" stroke="#1A1A1A"></path>
      <path d="M14.836 77.817l25.913 14.961M8.791 37.418v29.92m76.023-29.92v29.92M40.755 11.979L14.838 26.942m63.929 0L52.852 11.98m.003 80.799l25.913-14.96" stroke="#B2B2B2"></path>
      <path clip-rule="evenodd" d="M53.79 8.487A6.988 6.988 0 0046.803 1.5a6.988 6.988 0 106.988 6.987zM12.284 24.383a6.987 6.987 0 10-6.986 12.103 6.987 6.987 0 006.986-12.103zM5.298 68.276a6.987 6.987 0 106.986 12.1 6.987 6.987 0 00-6.986-12.1zM39.81 96.273a6.992 6.992 0 1013.984-.001 6.992 6.992 0 00-13.983.001zm41.513-15.896a6.987 6.987 0 106.985-12.102 6.987 6.987 0 00-6.985 12.102zm6.987-43.893a6.988 6.988 0 002.557-9.544 6.988 6.988 0 00-12.102 6.987 6.988 6.988 0 009.544 2.557z" stroke="#B2B2B2"></path>
    </g>
  </symbol>
  <symbol fill="none" xmlns="http://www.w3.org/2000/svg" viewBox="0 0 92 93" id="security-img-1">
    <g opacity=".4" stroke-width="2" stroke-linecap="round" stroke-linejoin="round">
      <path d="M73.642 58.228a30.054 30.054 0 01-6.43 9.536A29.906 29.906 0 0146 76.55a29.906 29.906 0 01-21.213-8.787 30.034 30.034 0 01-6.429-9.536m-.001-23.354a30.062 30.062 0 016.43-9.536 30.062 30.062 0 019.535-6.429A29.907 29.907 0 0146 16.55a29.904 29.904 0 0121.212 8.787 30.048 30.048 0 016.43 9.536m-3.999 37.211l4-13.856M22.357 21.017l-4 13.856" stroke="#231F20"></path>
      <path d="M34.059 46.622l7.628 7.929 16.256-16" stroke="#B2B2B2"></path>
      <path clip-rule="evenodd" d="M91 46.55c0 24.854-20.147 45-45 45-24.854 0-45-20.146-45-45 0-24.852 20.146-45 45-45 24.853 0 45 20.148 45 45z" stroke="#B2B2B2"></path>
    </g>
  </symbol>
  <symbol fill="none" xmlns="http://www.w3.org/2000/svg" viewBox="0 0 66 87" id="security-img-2">
    <g opacity=".4" stroke-width="2" stroke-linecap="round" stroke-linejoin="round">
      <path d="M9.1 70.215V16.679m48.573 63.249v2.43A3.643 3.643 0 0154.03 86H12.744a3.643 3.643 0 01-3.642-3.643v-2.429m48.57-63.036v53.322M9.1 6.858V4.643A3.643 3.643 0 0112.743 1h41.286a3.643 3.643 0 013.642 3.643v2.643" stroke="#B2B2B2"></path>
      <path clip-rule="evenodd" d="M34.385 79.93a1 1 0 10-2-.001 1 1 0 002 0z" stroke="#B2B2B2"></path>
      <path d="M16.386 75.072H1.814V60.498m0-33.998V11.929h14.572m33.999 0h14.57v14.57m.003 34.001v14.572H50.387M33.385 33.5v20m10-10h-20" stroke="#1A1A1A"></path>
    </g>
  </symbol>
</svg>